The mortal son of the god Zeus embarks on a perilous journey to stop the underworld and its minions from spreading their evil to Earth as well as the heavens.
 
http://www.imdb.com/title/tt0800320/

Subtitles (srt) : Dutch, English.

Covers included.

Geboren als een god, maar opgevoed als een mens probeert Perseus (Sam Worthington) hulpeloos zijn familie te redden van Hades (Ralph Fiennes), de wraakzuchtige god van de onderwereld. Perseus biedt zich vrijwillig aan om deel te nemen aan een levensgevaarlijke missie om Hades te vermoorden, voordat die de macht van Zeus (Liam Neeson) kan grijpen, om zo de aarde in een hel te laten veranderen en prinses Andromeda (Alexa Davalos) van haar leven te beroven. Bijgestaan door Io (Gemma Arterton), een mysterieuze spirituele gids leidt de missie Perseus en zijn groep strijders op een gevaarlijke reis diep de verboden wereld in. Daar moeten ze vechten tegen heidense demonen en andere beesten die geen gevaar vrezen. Perseus zal zijn bestaan en zijn macht als die van een god moeten accepteren en zijn eigen lot moeten creëren, wil hij het uiteindelijk gaan redden...
 
http://www.moviemeter.nl/film/58228

Ondertitels (srt) : Engels, Nederlands.

Hoesjes bijgevoegd.

General
Complete name                    : Clash of The Titans-AC3-XviD-DVDRip[Eng]2010 2Lions-Team\Clash of The Titans-AC3-XviD-DVDRip[Eng]2010.avi
Format                           : AVI
Format/Info                      : Audio Video Interleave
File size                        : 1.36 GiB
Duration                         : 1h 46mn
Overall bit rate                 : 1 839 Kbps
Writing application              : VirtualDubMod 1.5.4.1 (build 2178/release)
Writing library                  : VirtualDubMod build 2178/release

Video
ID                               : 0
Format                           : MPEG-4 Visual
Format profile                   : Simple@L3
Format settings, BVOP            : No
Format settings, QPel            : No
Format settings, GMC             : No warppoints
Format settings, Matrix          : Default (H.263)
Codec ID                         : XVID
Codec ID/Hint                    : XviD
Duration                         : 1h 46mn
Bit rate                         : 1 446 Kbps
Width                            : 720 pixels
Height                           : 304 pixels
Display aspect ratio             : 2.35:1
Frame rate                       : 23.976 fps
Resolution                       : 8 bits
Colorimetry                      : 4:2:0
Scan type                        : Progressive
Bits/(Pixel*Frame)               : 0.276
Stream size                      : 1.07 GiB (79%)
Writing library                  : XviD 1.1.2 (UTC 2006-11-01)

Audio
ID                               : 1
Format                           : AC-3
Format/Info                      : Audio Coding 3
Format_Settings_ModeExtension    : CM (complete main)
Codec ID                         : 2000
Duration                         : 1h 46mn
Bit rate mode                    : Constant
Bit rate                         : 384 Kbps
Channel(s)                       : 6 channels
Channel positions                : Front: L C R, Side: L R, LFE
Sampling rate                    : 48.0 KHz
Stream size                      : 291 MiB (21%)
Alignment                        : Split accross interleaves
Interleave, duration             : 42 ms (1.00 video frame)
Interleave, preload duration     : 500 ms

Source Clash.of.The.Titans.DVDR-Replica

Thanks to depositair for the Dutch subs.

Brought to you by 
2Lions Team

meer zien??
Kom dan eens kijken op ons forum 
                    
http://www.2lions.ons-forum.nl

2Lions the site to be for all your Dutch MOVIES and more

******************************************

DON T HIT AND RUN Niet gelijk afhaken als de FILM binnen is blijf seeden. 

Don`t quit after you finished the download, but keep seeding

There are fake torrents from uploaders who use our team name.
Those are not ours, or members from our team.
We 2Lions-Team are not responsible for the fake posts on our name

Wij 2Lions-Team zijn niet verantwoordelijk voor die zieke FAKE posten die op onze naam worden gedaan

Please check our site !!!

to the fakers , get a life !!!